<svg width="145" height="159" viewBox="0 0 145 159" fill="none" xmlns="http://www.w3.org/2000/svg">
<g id="Group">
<path id="Vector" opacity="0.15" d="M72.3706 158.051C112.34 158.051 144.741 156.16 144.741 153.828C144.741 151.495 112.34 149.604 72.3706 149.604C32.4014 149.604 0 151.495 0 153.828C0 156.16 32.4014 158.051 72.3706 158.051Z" fill="black"/>
<g id="Group_2">
<g id="Group_3">
<g id="Group_4">
<path id="Vector_2" fill-rule="evenodd" clip-rule="evenodd" d="M29.5956 78.4228L28.5493 79.0756C28.1833 78.4833 27.8243 77.8864 27.4807 77.2805L28.5526 76.6707C28.8878 77.2618 29.2382 77.8444 29.5956 78.4228Z" fill="#3C415E"/>
<path id="Vector_3" fill-rule="evenodd" clip-rule="evenodd" d="M31.6413 81.4548L30.6439 82.18C30.233 81.6179 29.8374 81.045 29.4492 80.4672L30.4745 79.782C30.8537 80.3463 31.2399 80.9061 31.6413 81.4548Z" fill="#3C415E"/>
<path id="Vector_4" fill-rule="evenodd" clip-rule="evenodd" d="M33.8916 84.3164L32.9564 85.1203C32.4987 84.5882 32.0607 84.0458 31.6318 83.496L32.6054 82.739C33.0231 83.2747 33.4503 83.8033 33.8916 84.3164Z" fill="#3C415E"/>
</g>
<g id="Group_5">
<path id="Vector_5" fill-rule="evenodd" clip-rule="evenodd" d="M24.9387 68.5199L23.7631 68.8925C23.6499 68.5612 23.561 68.2215 23.4605 67.8859C23.3581 67.5508 23.2735 67.2102 23.1868 66.8702L24.3821 66.5667C24.4656 66.8946 24.547 67.223 24.6461 67.547C24.7437 67.8714 24.829 68.1992 24.9387 68.5199Z" fill="#3C415E"/>
<path id="Vector_6" fill-rule="evenodd" clip-rule="evenodd" d="M26.2066 71.9392L25.071 72.4203C24.9353 72.0984 24.7976 71.7774 24.674 71.4502C24.5484 71.1239 24.4151 70.8007 24.3013 70.4698L25.4597 70.0469C25.5699 70.3674 25.6994 70.6811 25.8212 70.9976C25.9409 71.3148 26.0748 71.6266 26.2066 71.9392Z" fill="#3C415E"/>
<path id="Vector_7" fill-rule="evenodd" clip-rule="evenodd" d="M27.7638 75.2293L26.6717 75.802L26.1961 74.8704L25.7412 73.9279L26.858 73.4045L27.3005 74.3218L27.7638 75.2293Z" fill="#3C415E"/>
</g>
<g id="Group_6">
<path id="Vector_8" fill-rule="evenodd" clip-rule="evenodd" d="M23.7232 57.8248L22.5115 57.5953L22.558 57.3256L22.6247 57.0586L22.761 56.5249C22.8005 56.3457 22.8683 56.1731 22.9275 55.9984L23.1102 55.4758L24.2581 55.9265L24.0962 56.3919C24.0435 56.5474 23.9817 56.6999 23.9474 56.8616L23.8254 57.3405L23.7647 57.5801L23.7232 57.8248Z" fill="#3C415E"/>
<path id="Vector_9" fill-rule="evenodd" clip-rule="evenodd" d="M23.5286 61.3918L22.2975 61.4642C22.286 61.1065 22.264 60.75 22.2625 60.3912C22.2731 60.0312 22.2748 59.6717 22.2943 59.3113L23.5251 59.3895C23.5074 59.7217 23.5064 60.0558 23.4958 60.3889C23.4973 60.7227 23.5185 61.0576 23.5286 61.3918Z" fill="#3C415E"/>
<path id="Vector_10" fill-rule="evenodd" clip-rule="evenodd" d="M24.0143 64.9722L22.8052 65.2154L22.6163 64.1778C22.5548 63.8317 22.5137 63.4817 22.4617 63.1337L23.6843 62.9719C23.7346 63.306 23.7735 63.6417 23.8327 63.9745L24.0143 64.9722Z" fill="#3C415E"/>
</g>
<g id="Group_7">
<path id="Vector_11" fill-rule="evenodd" clip-rule="evenodd" d="M30.322 49.9951L29.7888 48.8831C30.4295 48.5685 31.0875 48.306 31.7468 48.052L32.1786 49.2072C31.5502 49.4495 30.9238 49.6992 30.322 49.9951Z" fill="#3C415E"/>
<path id="Vector_12" fill-rule="evenodd" clip-rule="evenodd" d="M27.2805 51.8769L26.502 50.9205C26.6382 50.7975 26.787 50.694 26.9335 50.5867L27.3735 50.2659C27.5175 50.1539 27.6751 50.0673 27.8263 49.9687L28.2845 49.6812L28.9156 50.7407L28.4924 51.0065C28.3532 51.0974 28.2057 51.1774 28.0752 51.2799L27.6733 51.5733C27.5396 51.6712 27.4025 51.7655 27.2805 51.8769Z" fill="#3C415E"/>
<path id="Vector_13" fill-rule="evenodd" clip-rule="evenodd" d="M24.9614 54.5085L23.905 53.872C23.9913 53.7074 24.1008 53.5578 24.2062 53.4053L24.5239 52.9493C24.6341 52.8009 24.758 52.6636 24.8748 52.5205C24.9951 52.3808 25.1081 52.2332 25.2352 52.1003L26.1403 52.9379C26.0265 53.0565 25.9276 53.188 25.8203 53.3121C25.7169 53.4393 25.6054 53.5607 25.508 53.6924L25.2278 54.0962C25.1344 54.2307 25.0364 54.3624 24.9614 54.5085Z" fill="#3C415E"/>
</g>
<g id="Group_8">
<path id="Vector_14" fill-rule="evenodd" clip-rule="evenodd" d="M40.8491 47.1128L40.6611 45.894C41.3455 45.7822 42.0315 45.6953 42.7173 45.6033L42.8748 46.8264C42.1987 46.9172 41.5216 47.0027 40.8491 47.1128Z" fill="#3C415E"/>
<path id="Vector_15" fill-rule="evenodd" clip-rule="evenodd" d="M37.2456 47.7678L36.9858 46.5623L38.0082 46.3526C38.3487 46.2798 38.6913 46.2274 39.0327 46.1638L39.2492 47.3779C38.9147 47.4403 38.5775 47.4916 38.2451 47.563L37.2456 47.7678Z" fill="#3C415E"/>
<path id="Vector_16" fill-rule="evenodd" clip-rule="evenodd" d="M33.7262 48.6829L33.3591 47.5056C34.0277 47.2869 34.7055 47.1175 35.3806 46.9338L35.6817 48.1297C35.0278 48.308 34.3688 48.4723 33.7262 48.6829Z" fill="#3C415E"/>
</g>
<g id="Group_9">
<path id="Vector_17" fill-rule="evenodd" clip-rule="evenodd" d="M51.8318 46.021L51.7576 44.7899L52.7883 44.7281L53.819 44.676L53.8813 45.9078L52.8562 45.9595L51.8318 46.021Z" fill="#3C415E"/>
<path id="Vector_18" fill-rule="evenodd" clip-rule="evenodd" d="M48.1614 46.2797L48.0603 45.0506C48.7473 44.9884 49.4345 44.9463 50.1216 44.895L50.2067 46.1253C49.5249 46.1762 48.842 46.218 48.1614 46.2797Z" fill="#3C415E"/>
<path id="Vector_19" fill-rule="evenodd" clip-rule="evenodd" d="M44.5142 46.63L44.3772 45.4044C45.0633 45.3199 45.7505 45.2637 46.4371 45.1921L46.5526 46.42C45.8732 46.491 45.1917 46.5466 44.5142 46.63Z" fill="#3C415E"/>
</g>
<g id="Group_10">
<path id="Vector_20" fill-rule="evenodd" clip-rule="evenodd" d="M62.9013 45.3819L62.8079 44.1523L64.8483 43.9854L64.9566 45.2138L62.9013 45.3819Z" fill="#3C415E"/>
<path id="Vector_21" fill-rule="evenodd" clip-rule="evenodd" d="M59.2136 45.6304L59.1404 44.3994L61.1863 44.269L61.27 45.4993L59.2136 45.6304Z" fill="#3C415E"/>
<path id="Vector_22" fill-rule="evenodd" clip-rule="evenodd" d="M55.5366 45.825L55.4778 44.5931C56.1608 44.5582 56.8448 44.5295 57.5271 44.4895L57.5934 45.721C56.908 45.7611 56.2222 45.79 55.5366 45.825Z" fill="#3C415E"/>
</g>
<g id="Group_11">
<path id="Vector_23" fill-rule="evenodd" clip-rule="evenodd" d="M73.9453 44.0445L73.7158 42.8328C74.0498 42.7764 73.9045 42.7458 74.2355 42.6796L75.2038 42.5307L75.6946 42.4153L75.9758 43.616L75.4699 43.7349L74.962 43.8405C74.6231 43.9083 74.2856 43.9869 73.9453 44.0445Z" fill="#3C415E"/>
<path id="Vector_24" fill-rule="evenodd" clip-rule="evenodd" d="M70.2798 44.6301L70.1147 43.4079L71.1238 43.2674L72.1284 43.1096L72.3259 44.327L70.8308 44.5335L70.2798 44.6301Z" fill="#3C415E"/>
<path id="Vector_25" fill-rule="evenodd" clip-rule="evenodd" d="M66.6128 45.0586L66.4902 43.8315C67.167 43.757 67.8458 43.6922 68.5207 43.6091L68.6651 44.8339C67.9817 44.9179 67.2969 44.9833 66.6128 45.0586Z" fill="#3C415E"/>
</g>
<g id="Group_12">
<path id="Vector_26" fill-rule="evenodd" clip-rule="evenodd" d="M83.8529 39.9218L83.4912 38.9679C83.7331 38.7673 83.9264 38.528 84.139 38.3043C84.2389 38.1877 84.3241 38.0609 84.4182 37.9405L84.5568 37.7579C84.5979 37.6939 84.6355 37.6277 84.6751 37.563L85.7194 38.219C85.6717 38.2965 85.626 38.3753 85.5764 38.4514L85.4129 38.6693C85.3019 38.8128 85.1983 38.963 85.0807 39.1005C84.8344 39.3643 84.1286 39.6904 83.8529 39.9218Z" fill="#3C415E"/>
<path id="Vector_27" fill-rule="evenodd" clip-rule="evenodd" d="M81.122 41.9341L80.605 40.8145C80.8968 40.6703 80.7269 40.5882 81.0032 40.4231L81.8996 40.1418C82.0385 40.0608 82.1685 39.969 82.3036 39.8833L82.9795 40.9148C82.8297 41.0101 82.6831 41.1123 82.5302 41.2016L82.0667 41.4597C81.7612 41.6406 81.438 41.7787 81.122 41.9341Z" fill="#3C415E"/>
<path id="Vector_28" fill-rule="evenodd" clip-rule="evenodd" d="M77.6011 43.1999L77.2661 42.013C77.5916 41.9308 77.9051 41.8211 78.2244 41.7248C78.5451 41.631 78.8545 41.5143 79.1664 41.4028L79.5903 42.561C79.2615 42.6787 78.4611 42.8477 78.1273 42.9456C77.7942 43.046 77.9373 43.1146 77.6011 43.1999Z" fill="#3C415E"/>
</g>
<g id="Group_13">
<path id="Vector_29" fill-rule="evenodd" clip-rule="evenodd" d="M85.9453 29.1113L84.8585 29.6948C84.5844 29.164 83.7367 28.7341 83.2988 28.329L84.6083 27.3755C85.1476 27.8732 85.6068 28.4595 85.9453 29.1113Z" fill="#3C415E"/>
<path id="Vector_30" fill-rule="evenodd" clip-rule="evenodd" d="M86.9008 32.8358L85.6702 32.9173C85.6259 32.1296 85.5672 31.7373 85.3828 31.0424L86.5737 30.7222C86.7592 31.4188 86.8607 32.1318 86.9008 32.8358Z" fill="#3C415E"/>
<path id="Vector_31" fill-rule="evenodd" clip-rule="evenodd" d="M86.4726 36.6334L85.3049 36.2365L85.3824 36.021L85.4377 35.7968C85.4736 35.6469 85.5144 35.4988 85.5478 35.348L85.618 34.8865C85.6287 34.8094 85.6447 34.7333 85.6514 34.6552L85.6668 34.4194L86.8961 34.5173L86.8778 34.7852C86.8699 34.8744 86.8524 34.9633 86.84 35.0522L86.2848 35.6322C86.2464 35.8085 86.6723 35.9376 86.6296 36.1134L86.5633 36.3765L86.4726 36.6334Z" fill="#3C415E"/>
</g>
<g id="Group_14">
<path id="Vector_32" fill-rule="evenodd" clip-rule="evenodd" d="M75.7167 25.312L75.8089 26.5418C74.6705 26.6273 74.0092 26.7304 73.8134 26.7574L73.645 25.5356C74.3319 25.441 75.0224 25.3641 75.7167 25.312Z" fill="#3C415E"/>
<path id="Vector_33" fill-rule="evenodd" clip-rule="evenodd" d="M79.4804 25.3375L79.3469 26.5635C78.7026 26.4932 78.0466 26.4662 77.3865 26.4725L76.9028 25.2854C77.6024 25.2788 78.7783 25.2611 79.4804 25.3375Z" fill="#3C415E"/>
<path id="Vector_34" fill-rule="evenodd" clip-rule="evenodd" d="M83.1564 26.3663L82.5861 27.4596C82.0438 27.1815 81.4549 26.9694 80.8396 26.8191L81.1324 25.6211C81.4319 25.6943 82.1281 25.8376 83.1564 26.3663Z" fill="#3C415E"/>
</g>
<g id="Group_15">
<path id="Vector_35" fill-rule="evenodd" clip-rule="evenodd" d="M64.7798 27.4702L64.6283 28.7069L62.6509 29.2503L62.7932 28.0162L64.7798 27.4702Z" fill="#3C415E"/>
<path id="Vector_36" fill-rule="evenodd" clip-rule="evenodd" d="M67.8945 26.6006L68.6513 27.7547C67.9903 27.9111 67.3302 28.0756 66.6707 28.2457L66.3625 27.0515C67.0288 26.8797 67.2239 26.7592 67.8945 26.6006Z" fill="#3C415E"/>
<path id="Vector_37" fill-rule="evenodd" clip-rule="evenodd" d="M71.9908 25.7971L71.7324 27.0576C71.068 27.1746 70.8776 27.2597 70.2152 27.4017L69.9573 26.1957C70.6319 26.0511 71.3096 25.9171 71.9908 25.7971Z" fill="#3C415E"/>
</g>
<g id="Group_16">
<path id="Vector_38" fill-rule="evenodd" clip-rule="evenodd" d="M54.19 29.2074L53.8975 30.4054C53.7154 30.366 53.5394 30.3039 53.3601 30.2536C53.1816 30.2008 52.5291 30.1963 52.3578 30.1245L52.3112 29.8776C52.1421 29.8022 51.976 29.7205 51.8086 29.6418L52.3508 28.5342C52.4993 28.6036 52.6464 28.6765 52.7958 28.7436L53.2538 28.9201C53.4047 28.9844 53.5623 29.0277 53.7189 29.0738C53.8761 29.1173 54.0304 29.1734 54.19 29.2074Z" fill="#3C415E"/>
<path id="Vector_39" fill-rule="evenodd" clip-rule="evenodd" d="M57.6834 29.3416L57.8667 30.5611L57.3182 30.6363C57.1345 30.6562 56.9483 30.6591 56.7635 30.6707L56.4858 30.6847L56.3469 30.6913L56.2074 30.6869L55.6497 30.6677L55.7246 29.4366L56.2145 29.4537L56.337 29.4582L55.9866 29.4979L56.7049 29.4389C56.8684 29.4283 57.0323 29.427 57.1953 29.4092L57.6834 29.3416Z" fill="#3C415E"/>
<path id="Vector_40" fill-rule="evenodd" clip-rule="evenodd" d="M61.1958 28.4622L61.0542 29.6961L59.0645 30.2441L59.2165 29.0072L61.1958 28.4622Z" fill="#3C415E"/>
</g>
<g id="Group_17">
<path id="Vector_41" fill-rule="evenodd" clip-rule="evenodd" d="M46.3194 22.3527L45.2481 22.9638C44.8961 22.3469 44.0995 21.7618 43.8047 21.1118L45.402 20.5588C45.679 21.1693 45.9862 21.769 46.3194 22.3527Z" fill="#52298A"/>
<path id="Vector_42" fill-rule="evenodd" clip-rule="evenodd" d="M48.3735 25.3136L47.4326 26.1106C46.9649 25.566 46.5418 24.9898 46.1416 24.401L47.1636 23.7107C47.5055 24.2137 47.7095 24.5409 48.3735 25.3136Z" fill="#3C415E"/>
<path id="Vector_43" fill-rule="evenodd" clip-rule="evenodd" d="M50.9797 27.7296L50.2749 28.7415C49.68 28.3158 49.1147 27.8549 48.594 27.3529L49.4489 26.4641C49.8145 26.8166 50.1145 27.1085 50.9797 27.7296Z" fill="#3C415E"/>
</g>
</g>
<g id="Group_18">
<path id="Vector_44" d="M50.6276 12.3915L47.1988 16.3065L25.8303 10.085L50.6276 12.3915Z" fill="#E5F1C2"/>
<path id="Vector_45" d="M46.2648 24.4822L47.1988 16.3068L25.8303 10.0852L44.0409 19.7265L46.2648 24.4822Z" fill="#A4CD39"/>
<path id="Vector_46" d="M38.2671 25.5754L44.0409 19.7262L25.8303 10.085L38.2671 25.5754Z" fill="#E5F1C2"/>
</g>
</g>
<g id="Group_19">
<path id="Vector_47" d="M122.663 147.768C122.666 149.009 122.254 150.045 121.428 150.874C120.601 151.496 119.775 151.911 118.533 151.913L27.4958 152.082C26.4614 152.084 25.426 151.672 24.5972 151.053C23.7679 150.226 23.3524 149.193 23.3501 147.951L23.238 87.3286L122.552 87.145L122.663 147.768Z" fill="#749228"/>
<path id="Vector_48" d="M121.428 150.874C120.601 151.496 119.775 151.911 118.533 151.914L27.4958 152.082C26.4613 152.084 25.426 151.672 24.5972 151.053L72.9356 109.376L121.428 150.874Z" fill="#B6D761"/>
<path id="Vector_49" d="M122.551 87.1451L108.501 97.3095L75.6467 120.957C73.9938 122.202 71.7178 122.206 70.0604 120.968L37.326 97.4409L23.2378 87.3287L37.2884 77.1645L67.8696 55.1761L70.1425 53.5167C71.7954 52.2724 74.0714 52.2681 75.7288 53.5065L78.0078 55.1574L92.7175 65.6823L99.9686 70.8415L108.463 77.0329L122.551 87.1451Z" fill="#B6D761"/>
<path id="Vector_50" d="M108.447 67.9294L108.501 97.3095L75.6469 120.957C73.994 122.202 71.7181 122.206 70.0606 120.968L37.3263 97.4409L37.2559 59.3708C37.2517 57.0948 39.1104 55.2292 41.3864 55.2251L95.388 55.1252L108.447 67.9294Z" fill="#FAF9F9"/>
<path id="Vector_51" d="M95.6123 64.6425C95.6157 66.5046 97.0667 67.9502 98.9288 67.9468L108.446 67.9292L95.5945 55.1248L95.6123 64.6425Z" fill="#AFB9CA"/>
</g>
<g id="Group_20">
<path id="Vector_52" d="M133.1 147.715C138.888 141.926 138.888 132.541 133.1 126.753C127.311 120.964 117.926 120.964 112.137 126.753C106.349 132.541 106.349 141.926 112.137 147.715C117.926 153.504 127.311 153.504 133.1 147.715Z" fill="#FAF9F9"/>
<path id="Vector_53" d="M122.622 145.785C127.345 145.785 131.173 141.956 131.173 137.233C131.173 132.51 127.345 128.681 122.622 128.681C117.899 128.681 114.07 132.51 114.07 137.233C114.07 141.956 117.899 145.785 122.622 145.785Z" fill="#3C415E"/>
<path id="Vector_54" d="M113.5 153.196C113.354 153.196 113.208 153.14 113.097 153.029C112.874 152.806 112.874 152.445 113.097 152.223L115.339 149.98C115.562 149.758 115.923 149.758 116.146 149.98C116.368 150.203 116.368 150.564 116.146 150.786L113.903 153.029C113.792 153.14 113.646 153.196 113.5 153.196Z" fill="#FF666A"/>
<path id="Vector_55" d="M131.743 153.196C131.597 153.196 131.451 153.14 131.34 153.029L129.081 150.769C128.858 150.546 128.858 150.186 129.081 149.963C129.304 149.74 129.664 149.74 129.887 149.963L132.147 152.222C132.369 152.445 132.369 152.806 132.147 153.029C132.035 153.14 131.889 153.196 131.743 153.196Z" fill="#FF666A"/>
<path id="Vector_56" d="M132.937 127.093C132.791 127.093 132.646 127.037 132.534 126.926C132.311 126.703 132.311 126.343 132.534 126.12L134.245 124.41C134.467 124.187 134.828 124.187 135.051 124.41C135.274 124.633 135.274 124.993 135.051 125.216L133.34 126.926C133.229 127.038 133.083 127.093 132.937 127.093Z" fill="#FCC072"/>
<path id="Vector_57" d="M112.307 127.093C112.161 127.093 112.015 127.037 111.904 126.926L110.194 125.216C109.971 124.993 109.971 124.633 110.194 124.41C110.416 124.187 110.777 124.187 111 124.41L112.71 126.12C112.933 126.343 112.933 126.703 112.71 126.926C112.599 127.038 112.453 127.093 112.307 127.093Z" fill="#FCC072"/>
<path id="Vector_58" d="M122.622 153.196C113.82 153.196 106.659 146.035 106.659 137.233C106.659 128.431 113.82 121.27 122.622 121.27C131.424 121.27 138.585 128.431 138.585 137.233C138.585 146.035 131.424 153.196 122.622 153.196ZM122.622 123.55C115.077 123.55 108.94 129.689 108.94 137.233C108.94 144.777 115.077 150.915 122.622 150.915C130.167 150.915 136.304 144.777 136.304 137.233C136.304 129.689 130.167 123.55 122.622 123.55Z" fill="#FFDA32"/>
<g id="Group_21">
<path id="Vector_59" d="M122.622 124.052C122.307 124.052 122.052 124.306 122.052 124.622V125.192C122.052 125.507 122.307 125.762 122.622 125.762C122.937 125.762 123.192 125.507 123.192 125.192V124.622C123.192 124.306 122.937 124.052 122.622 124.052Z" fill="#FB7668"/>
<path id="Vector_60" d="M122.622 148.566C122.307 148.566 122.052 148.821 122.052 149.136V149.706C122.052 150.021 122.307 150.276 122.622 150.276C122.937 150.276 123.192 150.021 123.192 149.706V149.136C123.192 148.821 122.937 148.566 122.622 148.566Z" fill="#FB7668"/>
<path id="Vector_61" d="M135.164 136.594H134.594C134.279 136.594 134.024 136.848 134.024 137.164C134.024 137.479 134.279 137.734 134.594 137.734H135.164C135.479 137.734 135.734 137.479 135.734 137.164C135.734 136.848 135.479 136.594 135.164 136.594Z" fill="#FB7668"/>
<path id="Vector_62" d="M110.65 136.594H110.08C109.765 136.594 109.51 136.848 109.51 137.164C109.51 137.479 109.765 137.734 110.08 137.734H110.65C110.964 137.734 111.22 137.479 111.22 137.164C111.22 136.848 110.965 136.594 110.65 136.594Z" fill="#FB7668"/>
<path id="Vector_63" d="M131.087 127.892L130.684 128.295C130.461 128.518 130.461 128.878 130.684 129.101C130.795 129.212 130.941 129.268 131.087 129.268C131.233 129.268 131.379 129.212 131.49 129.101L131.893 128.698C132.116 128.475 132.116 128.115 131.893 127.892C131.67 127.669 131.31 127.669 131.087 127.892Z" fill="#FB7668"/>
<path id="Vector_64" d="M113.753 145.226L113.35 145.629C113.127 145.852 113.127 146.212 113.35 146.435C113.461 146.546 113.607 146.602 113.753 146.602C113.899 146.602 114.045 146.546 114.156 146.435L114.559 146.032C114.782 145.809 114.782 145.449 114.559 145.226C114.337 145.003 113.976 145.004 113.753 145.226Z" fill="#FB7668"/>
<path id="Vector_65" d="M131.49 145.226C131.268 145.003 130.907 145.003 130.684 145.226C130.461 145.449 130.461 145.809 130.684 146.032L131.087 146.435C131.199 146.547 131.345 146.602 131.49 146.602C131.636 146.602 131.782 146.547 131.893 146.435C132.116 146.212 132.116 145.852 131.893 145.629L131.49 145.226Z" fill="#FB7668"/>
<path id="Vector_66" d="M114.156 127.892C113.933 127.669 113.573 127.669 113.35 127.892C113.127 128.114 113.127 128.475 113.35 128.698L113.753 129.101C113.865 129.212 114.011 129.268 114.156 129.268C114.302 129.268 114.448 129.212 114.559 129.101C114.782 128.878 114.782 128.518 114.559 128.295L114.156 127.892Z" fill="#FB7668"/>
</g>
<path id="Vector_67" d="M115.781 137.233C115.781 137.548 116.036 137.803 116.351 137.803H120.423C120.678 138.784 121.563 139.513 122.622 139.513C123.88 139.513 124.903 138.49 124.903 137.233C124.903 136.173 124.173 135.288 123.192 135.033V129.251C123.192 128.936 122.937 128.681 122.622 128.681C122.308 128.681 122.052 128.936 122.052 129.251V135.033C121.255 135.241 120.63 135.865 120.423 136.663H116.351C116.036 136.663 115.781 136.917 115.781 137.233ZM121.482 137.233C121.482 136.604 121.993 136.093 122.622 136.093C123.251 136.093 123.763 136.604 123.763 137.233C123.763 137.862 123.251 138.373 122.622 138.373C121.993 138.373 121.482 137.862 121.482 137.233Z" fill="#FB7668"/>
<path id="Vector_68" d="M137.396 121.8C138.982 123.385 138.982 125.956 137.396 127.541L131.654 121.8C133.24 120.214 135.81 120.214 137.396 121.8Z" fill="#FF666A"/>
<path id="Vector_69" d="M107.848 121.8C106.263 123.385 106.263 125.956 107.848 127.541L113.59 121.8C112.004 120.214 109.434 120.214 107.848 121.8Z" fill="#FF666A"/>
</g>
<g id="Group_22" opacity="0.1">
<g id="Group_23">
<path id="Vector_70" d="M35.2174 33.9922L21.3635 29.3748L18.3615 38.3818L32.2154 42.9993L35.2174 33.9922Z" fill="#3C415E"/>
<path id="Vector_71" d="M35.2184 33.9881L21.3645 29.3708L30.1894 25.9844L35.2184 33.9881Z" fill="#3C415E"/>
<path id="Vector_72" d="M34.0321 32.8185L22.9417 29.1221L19.8193 38.4901L30.9097 42.1865L34.0321 32.8185Z" fill="white"/>
<path id="Vector_73" d="M21.3645 29.3708L18.3625 38.3779L26.6844 36.501L21.3645 29.3708Z" fill="#738598"/>
<path id="Vector_74" d="M35.2184 33.988L32.2165 42.9949L26.6846 36.5009L35.2184 33.988Z" fill="#738598"/>
<path id="Vector_75" d="M32.2165 42.9951L18.3625 38.3779L27.1876 34.9915L32.2165 42.9951Z" fill="#3C415E"/>
</g>
<path id="Vector_76" d="M18.3625 38.378L20.5556 37.4969L22.7543 36.6307L24.9567 35.7741L27.1604 34.9211L27.2185 34.8987L27.2514 34.9515L28.503 36.9559C28.919 37.6248 29.3399 38.2907 29.7512 38.9625L30.9905 40.9746L32.2163 42.9953L30.9277 41.0141L29.6526 39.0244C29.2258 38.3623 28.8084 37.6943 28.3864 37.0292L27.1235 35.0318L27.2146 35.0622L25.0059 35.9025L22.7957 36.7389L20.5819 37.5659L18.3625 38.378Z" fill="#3C415E"/>
</g>
<g id="Group_24" opacity="0.1">
<g id="Group_25">
<path id="Vector_77" d="M102.216 37.7407C102.216 38.2935 101.769 38.7413 101.217 38.7413C100.664 38.7413 100.216 38.2935 100.216 37.7407C100.216 37.1884 100.664 36.741 101.217 36.741C101.769 36.7408 102.216 37.1884 102.216 37.7407Z" fill="#738598"/>
</g>
</g>
<g id="Group_26" opacity="0.1">
<path id="Vector_78" d="M92.9316 7.66872L101.811 12.1734L109.486 0L92.9316 7.66872Z" fill="#738598"/>
<path id="Vector_79" d="M109.486 0L96.3511 9.40342V14.3759L98.6129 10.551L109.486 0Z" fill="#04659B"/>
<path id="Vector_80" d="M109.486 0L96.3511 9.40342V14.3759L98.6129 10.551L109.486 0Z" fill="#3C415E"/>
</g>
</g>
</svg>
